Coordinates
version=1
nRows=9
nColumns=24
inDegrees=yes

Units are S.I. units (second, meters, Newtons, ...)
Angles are in degrees.

endheader
time	pelvis_tilt	pelvis_list	pelvis_rotation	pelvis_tx	pelvis_ty	pelvis_tz	hip_flexion_r	hip_adduction_r	hip_rotation_r	knee_angle_r	ankle_angle_r	subtalar_angle_r	mtp_angle_r	hip_flexion_l	hip_adduction_l	hip_rotation_l	knee_angle_l	ankle_angle_l	subtalar_angle_l	mtp_angle_l	lumbar_extension	lumbar_bending	lumbar_rotation
      3.09500000	     -3.22720806	      3.48367553	    355.97224251	     -0.67226772	      1.36804007	     -0.96139270	     -2.94724189	     -0.09706652	      6.29272903	    -18.05337033	     14.06566230	     -2.36440918	      6.61358499	     22.22240988	      3.36613536	     -7.93413354	      1.72192147	     -7.07266063	      6.10679447	     30.22574815	    -12.63211621	      5.13975018	     -5.17620862
      3.10000000	     -3.23414904	      3.55799253	    356.00633694	     -0.66696779	      1.36745838	     -0.96194342	     -3.25924176	     -0.22311319	      6.28364390	    -18.08458449	     14.11416264	     -2.39262360	      6.66824083	     22.29524774	      3.50908154	     -7.60477078	      1.09085948	     -7.24451394	      5.29929555	     30.09197965	    -12.62002241	      5.01264293	     -5.15233496
      3.10500000	     -3.23379484	      3.64704053	    356.05237038	     -0.66160731	      1.36692412	     -0.96252589	     -3.58318894	     -0.36879011	      6.24814804	    -18.11162765	     14.13445381	     -2.40910078	      6.77210914	     22.33110343	      3.68286560	     -7.26781075	      0.51959857	     -7.52913692	      4.47353159	     30.07157658	    -12.60673567	      4.87200010	     -5.17117577
      3.11000000	     -3.24933192	      3.73273461	    356.09836281	     -0.65622741	      1.36641572	     -0.96311342	     -3.88185320	     -0.50758654	      6.22468064	    -18.15576984	     14.11833064	     -2.43998813	      6.90422532	     22.36669251	      3.85748993	     -6.93363289	     -0.01012022	     -7.88463808	      3.66366875	     30.13062077	    -12.57810334	      4.73298654	     -5.16783022
      3.11500000	     -3.23839587	      3.83295399	    356.15168059	     -0.65081984	      1.36597105	     -0.96370578	     -4.20409636	     -0.66340157	      6.18618204	    -18.21227170	     14.07583009	     -2.46567748	      7.04769560	     22.34848931	      4.05744229	     -6.61493608	     -0.48095235	     -8.30251682	      2.91445704	     30.23270429	    -12.57329365	      4.57363901	     -5.17808568
      3.12000000	     -3.29131488	      3.92590534	    356.21125846	     -0.64539512	      1.36552193	     -0.96431646	     -4.43851600	     -0.80504559	      6.14912232	    -18.30340458	     13.99919113	     -2.50200325	      7.23540936	     22.39569085	      4.24949826	     -6.30614245	     -0.93353326	     -8.75875771	      2.17512309	     30.41900229	    -12.50329492	      4.42872650	     -5.17180746
      3.12500000	     -3.31075474	      4.03905041	    356.26473742	     -0.63997196	      1.36516096	     -0.96490561	     -4.68858915	     -0.96938067	      6.11199050	    -18.43159342	     13.89254604	     -2.52969891	      7.42373247	     22.38342441	      4.46399156	     -6.03583217	     -1.32985608	     -9.26623926	      1.52310245	     30.59794161	    -12.47129705	      4.25165265	     -5.17699452
      3.13000000	     -3.35088003	      4.15336140	    356.32727809	     -0.63454508	      1.36484236	     -0.96551013	     -4.89207178	     -1.13275199	      6.05942234	    -18.60379379	     13.74391586	     -2.55082282	      7.65633504	     22.38591277	      4.68128427	     -5.76804808	     -1.70487827	     -9.79399288	      0.90398760	     30.82129568	    -12.42450064	      4.07538553	     -5.18344714
      3.13500000	     -3.40180089	      4.27545746	    356.38377594	     -0.62910334	      1.36458801	     -0.96609620	     -5.05500632	     -1.30227877	      6.01270757	    -18.82856465	     13.55245103	     -2.56684713	      7.92079677	     22.39049150	      4.90102860	     -5.53476896	     -2.06228420	    -10.32646550	      0.33803413	     31.06661705	    -12.36062519	      3.88606061	     -5.17995898
